<svg xmlns="http://www.w3.org/2000/svg" width="16" height="15" fill="none">
  <path fill="#000" fill-rule="evenodd" d="M15 2h-2V0h-1v2H4V0H3v2H1c-.6 0-1 .4-1 1v11c0 .5.4 1 1 1h14c.5 0 1-.5 1-1V3c0-.6-.5-1-1-1ZM1 6V3h2v2h1V3h8v2h1V3h2v3H1Zm14 8H1V7h14v7ZM3.5 10c.3 0 .5-.2.5-.5S3.8 9 3.5 9s-.5.2-.5.5.2.5.5.5Zm2.3 0c.3 0 .5-.2.5-.5S6 9 5.8 9c-.4 0-.5.2-.5.5s.1.5.5.5ZM8 10c.3 0 .5-.2.5-.5S8.3 9 8 9s-.5.2-.5.5.2.5.5.5Zm2.3 0c.3 0 .4-.2.4-.5s-.1-.5-.4-.5c-.4 0-.6.2-.6.5s.2.5.6.5Zm2.2 0c.3 0 .5-.2.5-.5s-.2-.5-.5-.5-.5.2-.5.5.2.5.5.5Zm-9 1c-.3 0-.5.2-.5.5s.2.5.5.5.5-.2.5-.5-.2-.5-.5-.5Zm2.3 0c-.4 0-.5.2-.5.5s.1.5.5.5c.3 0 .5-.2.5-.5S6 11 5.8 11ZM8 11c-.3 0-.5.2-.5.5s.2.5.5.5.5-.2.5-.5-.2-.5-.5-.5Zm2.3 0c-.4 0-.6.2-.6.5s.2.5.6.5c.3 0 .4-.2.4-.5s-.1-.5-.4-.5Zm2.2 0c-.3 0-.5.2-.5.5s.2.5.5.5.5-.2.5-.5-.2-.5-.5-.5Z"/>
</svg>
